{
  "accessors": [
    {
      "bufferView": 2,
      "componentType": 5126,
      "count": 44148,
      "max": [
        0.7081562876701355,
        -0.3513490855693817,
        0.18159613013267517
      ],
      "min": [
        -0.7081562280654907,
        -2.136868476867676,
        -0.17514942586421967
      ],
      "type": "VEC3"
    },
    {
      "bufferView": 2,
      "byteOffset": 529776,
      "componentType": 5126,
      "count": 44148,
      "max": [
        0.9999923706054688,
        0.9999931454658508,
        0.9999951124191284
      ],
      "min": [
        -0.9999048113822937,
        -0.9999293684959412,
        -0.9962744116783142
      ],
      "type": "VEC3"
    },
    {
      "bufferView": 1,
      "componentType": 5126,
      "count": 44148,
      "max": [
        0.9999989867210388,
        0.9922260046005249
      ],
      "min": [
        4.800709939445369e-05,
        2.455220055708196e-05
      ],
      "type": "VEC2"
    },
    {
      "bufferView": 0,
      "componentType": 5125,
      "count": 235368,
      "type": "SCALAR"
    },
    {
      "bufferView": 2,
      "byteOffset": 1059552,
      "componentType": 5126,
      "count": 27,
      "max": [
        -0.6324300169944763,
        -0.8013468384742737,
        -0.10367615520954132
      ],
      "min": [
        -0.6830184459686279,
        -1.0357682704925537,
        -0.12851883471012115
      ],
      "type": "VEC3"
    },
    {
      "bufferView": 2,
      "byteOffset": 1059876,
      "componentType": 5126,
      "count": 27,
      "max": [
        -0.7570428252220154,
        0.34842735528945923,
        -0.25260600447654724
      ],
      "min": [
        -0.9417657852172852,
        -0.001319046365097165,
        -0.6487331986427307
      ],
      "type": "VEC3"
    },
    {
      "bufferView": 1,
      "byteOffset": 353184,
      "componentType": 5126,
      "count": 27,
      "max": [
        0.0,
        0.0
      ],
      "min": [
        0.0,
        0.0
      ],
      "type": "VEC2"
    },
    {
      "bufferView": 0,
      "byteOffset": 941472,
      "componentType": 5125,
      "count": 78,
      "type": "SCALAR"
    }
  ],
  "asset": {
    "extras": {
      "author": "emm (https://sketchfab.com/edemaistre)",
      "license": "CC-BY-4.0 (http://creativecommons.org/licenses/by/4.0/)",
      "source": "https://sketchfab.com/3d-models/avocado-toast-shack15-ferry-building-3d860337cc1245228c277414436d1033",
      "title": "Avocado toast @SHACK15 (Ferry Building)"
    },
    "generator": "Sketchfab-12.66.0",
    "version": "2.0"
  },
  "bufferViews": [
    {
      "buffer": 0,
      "byteLength": 941784,
      "name": "floatBufferViews",
      "target": 34963
    },
    {
      "buffer": 0,
      "byteLength": 353400,
      "byteOffset": 941784,
      "byteStride": 8,
      "name": "floatBufferViews",
      "target": 34962
    },
    {
      "buffer": 0,
      "byteLength": 1060200,
      "byteOffset": 1295184,
      "byteStride": 12,
      "name": "floatBufferViews",
      "target": 34962
    }
  ],
  "buffers": [
    {
      "byteLength": 2355384,
      "uri": "scene.bin"
    }
  ],
  "extensionsUsed": [
    "KHR_materials_unlit"
  ],
  "images": [
    {
      "uri": "textures/material_1_baseColor.png"
    }
  ],
  "materials": [
    {
      "doubleSided": true,
      "extensions": {
        "KHR_materials_unlit": {}
      },
      "name": "material_1",
      "pbrMetallicRoughness": {
        "baseColorTexture": {
          "index": 0
        },
        "metallicFactor": 0.0
      }
    }
  ],
  "meshes": [
    {
      "name": "Object_0",
      "primitives": [
        {
          "attributes": {
            "NORMAL": 1,
            "POSITION": 0,
            "TEXCOORD_0": 2
          },
          "indices": 3,
          "material": 0,
          "mode": 4
        }
      ]
    },
    {
      "name": "Object_1",
      "primitives": [
        {
          "attributes": {
            "NORMAL": 5,
            "POSITION": 4,
            "TEXCOORD_0": 6
          },
          "indices": 7,
          "material": 0,
          "mode": 4
        }
      ]
    }
  ],
  "nodes": [
    {
      "children": [
        1
      ],
      "matrix": [
        1.0,
        0.0,
        0.0,
        0.0,
        0.0,
        2.220446049250313e-16,
        -1.0,
        0.0,
        0.0,
        1.0,
        2.220446049250313e-16,
        0.0,
        0.0,
        0.0,
        0.0,
        1.0
      ],
      "name": "Sketchfab_model"
    },
    {
      "children": [
        2,
        3
      ],
      "name": "avocado-toast.obj.cleaner.materialmerger.gles"
    },
    {
      "mesh": 0,
      "name": "Object_2"
    },
    {
      "mesh": 1,
      "name": "Object_3"
    }
  ],
  "samplers": [
    {
      "magFilter": 9729,
      "minFilter": 9987,
      "wrapS": 10497,
      "wrapT": 10497
    }
  ],
  "scene": 0,
  "scenes": [
    {
      "name": "Sketchfab_Scene",
      "nodes": [
        0
      ]
    }
  ],
  "textures": [
    {
      "sampler": 0,
      "source": 0
    }
  ]
}
